<svg width="275" height="51" viewBox="0 0 275 51" fill="none" xmlns="http://www.w3.org/2000/svg">
<path d="M2.81663 50C2.13397 50 1.53663 49.7653 1.02463 49.296C0.555298 48.784 0.320632 48.1867 0.320632 47.504V2.512C0.320632 1.78666 0.555298 1.18933 1.02463 0.719997C1.53663 0.250665 2.13397 0.0159988 2.81663 0.0159988C3.84063 0.0159988 4.5873 0.442665 5.05663 1.296L26.6246 44.176H24.4486L45.6326 1.296C46.1446 0.442665 46.8913 0.0159988 47.8726 0.0159988C48.5553 0.0159988 49.1313 0.250665 49.6006 0.719997C50.07 1.18933 50.3046 1.78666 50.3046 2.512V47.504C50.3046 48.1867 50.07 48.784 49.6006 49.296C49.1313 49.7653 48.5553 50 47.8726 50C47.1473 50 46.5286 49.7653 46.0166 49.296C45.5473 48.784 45.3126 48.1867 45.3126 47.504V8.976L46.4006 9.04L27.5206 47.632C27.0513 48.4427 26.326 48.848 25.3446 48.848C24.278 48.848 23.51 48.336 23.0406 47.312L4.03263 9.296L5.31263 8.976V47.504C5.31263 48.1867 5.05663 48.784 4.54463 49.296C4.0753 49.7653 3.4993 50 2.81663 50ZM78.3651 50.32C74.9091 50.32 71.8371 49.5733 69.1491 48.08C66.5038 46.544 64.4131 44.432 62.8771 41.744C61.3838 39.056 60.6371 35.984 60.6371 32.528C60.6371 29.0293 61.3411 25.9573 62.7491 23.312C64.1998 20.624 66.1838 18.512 68.7011 16.976C71.2185 15.44 74.1198 14.672 77.4051 14.672C80.6478 14.672 83.4638 15.4187 85.8531 16.912C88.2851 18.3627 90.1625 20.3893 91.4851 22.992C92.8078 25.5947 93.4691 28.56 93.4691 31.888C93.4691 32.5707 93.2558 33.1253 92.8291 33.552C92.4025 33.936 91.8478 34.128 91.1651 34.128H63.9651V30.032H91.6771L88.9251 32.016C88.9678 29.5413 88.5198 27.3227 87.5811 25.36C86.6425 23.3973 85.2985 21.8613 83.5491 20.752C81.8425 19.6427 79.7945 19.088 77.4051 19.088C74.9731 19.088 72.8398 19.664 71.0051 20.816C69.1705 21.968 67.7411 23.568 66.7171 25.616C65.7358 27.6213 65.2451 29.9253 65.2451 32.528C65.2451 35.1307 65.7998 37.4347 66.9091 39.44C68.0611 41.4453 69.6185 43.024 71.5811 44.176C73.5438 45.328 75.8051 45.904 78.3651 45.904C79.9011 45.904 81.4371 45.648 82.9731 45.136C84.5518 44.5813 85.8105 43.8987 86.7491 43.088C87.2185 42.704 87.7518 42.512 88.3491 42.512C88.9465 42.4693 89.4585 42.6187 89.8851 42.96C90.4398 43.472 90.7171 44.0267 90.7171 44.624C90.7598 45.2213 90.5251 45.7333 90.0131 46.16C88.6051 47.3547 86.8131 48.3573 84.6371 49.168C82.4611 49.936 80.3705 50.32 78.3651 50.32ZM131.822 50C131.096 50 130.499 49.7653 130.03 49.296C129.56 48.8267 129.326 48.2507 129.326 47.568V30.928C129.326 28.2827 128.814 26.1067 127.79 24.4C126.808 22.6933 125.443 21.4133 123.694 20.56C121.987 19.7067 120.046 19.28 117.87 19.28C115.779 19.28 113.88 19.6853 112.174 20.496C110.51 21.3067 109.187 22.416 108.206 23.824C107.224 25.232 106.734 26.832 106.734 28.624H103.214C103.299 25.936 104.024 23.5467 105.39 21.456C106.755 19.3227 108.568 17.6587 110.83 16.464C113.091 15.2267 115.608 14.608 118.382 14.608C121.411 14.608 124.12 15.248 126.51 16.528C128.899 17.7653 130.776 19.6 132.142 22.032C133.55 24.464 134.254 27.4293 134.254 30.928V47.568C134.254 48.2507 134.019 48.8267 133.55 49.296C133.08 49.7653 132.504 50 131.822 50ZM104.302 50C103.534 50 102.915 49.7867 102.446 49.36C102.019 48.8907 101.806 48.2933 101.806 47.568V17.488C101.806 16.72 102.019 16.1227 102.446 15.696C102.915 15.2267 103.534 14.992 104.302 14.992C105.027 14.992 105.603 15.2267 106.03 15.696C106.499 16.1227 106.734 16.72 106.734 17.488V47.568C106.734 48.2933 106.499 48.8907 106.03 49.36C105.603 49.7867 105.027 50 104.302 50ZM158.814 50C156.553 50 154.526 49.4667 152.734 48.4C150.985 47.3333 149.598 45.8827 148.574 44.048C147.55 42.1707 147.038 40.0373 147.038 37.648V6.352C147.038 5.62666 147.251 5.02933 147.678 4.56C148.147 4.09067 148.745 3.856 149.47 3.856C150.195 3.856 150.793 4.09067 151.262 4.56C151.731 5.02933 151.966 5.62666 151.966 6.352V37.648C151.966 39.824 152.606 41.616 153.886 43.024C155.166 44.3893 156.809 45.072 158.814 45.072H160.542C161.225 45.072 161.779 45.3067 162.206 45.776C162.633 46.2453 162.846 46.8427 162.846 47.568C162.846 48.2933 162.59 48.8907 162.078 49.36C161.566 49.7867 160.926 50 160.158 50H158.814ZM142.878 20.56C142.238 20.56 141.705 20.368 141.278 19.984C140.851 19.5573 140.638 19.0453 140.638 18.448C140.638 17.808 140.851 17.296 141.278 16.912C141.705 16.4853 142.238 16.272 142.878 16.272H159.198C159.838 16.272 160.371 16.4853 160.798 16.912C161.225 17.296 161.438 17.808 161.438 18.448C161.438 19.0453 161.225 19.5573 160.798 19.984C160.371 20.368 159.838 20.56 159.198 20.56H142.878ZM186.804 50.32C183.391 50.32 180.34 49.552 177.652 48.016C174.964 46.48 172.852 44.368 171.316 41.68C169.78 38.992 169.012 35.9413 169.012 32.528C169.012 29.072 169.78 26 171.316 23.312C172.852 20.624 174.964 18.512 177.652 16.976C180.34 15.44 183.391 14.672 186.804 14.672C190.217 14.672 193.247 15.44 195.892 16.976C198.58 18.512 200.692 20.624 202.228 23.312C203.764 26 204.553 29.072 204.596 32.528C204.596 35.9413 203.807 38.992 202.228 41.68C200.692 44.368 198.58 46.48 195.892 48.016C193.247 49.552 190.217 50.32 186.804 50.32ZM186.804 45.84C189.279 45.84 191.497 45.264 193.46 44.112C195.423 42.96 196.959 41.3813 198.068 39.376C199.177 37.3707 199.732 35.088 199.732 32.528C199.732 29.968 199.177 27.6853 198.068 25.68C196.959 23.632 195.423 22.032 193.46 20.88C191.497 19.728 189.279 19.152 186.804 19.152C184.329 19.152 182.111 19.728 180.148 20.88C178.185 22.032 176.628 23.632 175.476 25.68C174.367 27.6853 173.812 29.968 173.812 32.528C173.812 35.088 174.367 37.3707 175.476 39.376C176.628 41.3813 178.185 42.96 180.148 44.112C182.111 45.264 184.329 45.84 186.804 45.84ZM216.229 28.432C216.357 25.7867 217.039 23.4187 218.277 21.328C219.557 19.2373 221.199 17.5947 223.205 16.4C225.253 15.2053 227.514 14.608 229.989 14.608C231.951 14.608 233.466 14.8853 234.533 15.44C235.599 15.9947 236.005 16.8053 235.749 17.872C235.578 18.512 235.279 18.9387 234.853 19.152C234.469 19.3653 233.978 19.4507 233.381 19.408C232.826 19.3653 232.186 19.3227 231.461 19.28C229.071 19.0667 226.938 19.3227 225.061 20.048C223.226 20.7307 221.754 21.7973 220.645 23.248C219.578 24.6987 219.045 26.4267 219.045 28.432H216.229ZM216.613 50C215.845 50 215.247 49.7867 214.821 49.36C214.394 48.9333 214.181 48.336 214.181 47.568V17.424C214.181 16.656 214.394 16.0587 214.821 15.632C215.247 15.2053 215.845 14.992 216.613 14.992C217.381 14.992 217.978 15.2053 218.405 15.632C218.831 16.0587 219.045 16.656 219.045 17.424V47.568C219.045 48.336 218.831 48.9333 218.405 49.36C217.978 49.7867 217.381 50 216.613 50ZM256.355 50.32C253.069 50.32 250.125 49.552 247.523 48.016C244.92 46.4373 242.851 44.304 241.315 41.616C239.821 38.928 239.075 35.8987 239.075 32.528C239.075 29.1147 239.843 26.064 241.379 23.376C242.957 20.688 245.091 18.576 247.779 17.04C250.467 15.4613 253.496 14.672 256.867 14.672C260.237 14.672 263.245 15.4613 265.891 17.04C268.579 18.576 270.691 20.688 272.227 23.376C273.805 26.064 274.616 29.1147 274.659 32.528L272.675 34.064C272.675 37.136 271.949 39.9093 270.499 42.384C269.091 44.816 267.149 46.7573 264.675 48.208C262.243 49.616 259.469 50.32 256.355 50.32ZM256.867 45.84C259.341 45.84 261.539 45.264 263.459 44.112C265.421 42.96 266.957 41.3813 268.067 39.376C269.219 37.328 269.795 35.0453 269.795 32.528C269.795 29.968 269.219 27.6853 268.067 25.68C266.957 23.6747 265.421 22.096 263.459 20.944C261.539 19.7493 259.341 19.152 256.867 19.152C254.435 19.152 252.237 19.7493 250.275 20.944C248.312 22.096 246.755 23.6747 245.603 25.68C244.451 27.6853 243.875 29.968 243.875 32.528C243.875 35.0453 244.451 37.328 245.603 39.376C246.755 41.3813 248.312 42.96 250.275 44.112C252.237 45.264 254.435 45.84 256.867 45.84ZM272.163 50C271.437 50 270.84 49.7867 270.371 49.36C269.901 48.8907 269.667 48.2933 269.667 47.568V36.624L270.883 31.568L274.659 32.528V47.568C274.659 48.2933 274.424 48.8907 273.955 49.36C273.485 49.7867 272.888 50 272.163 50Z" fill="#FF8D21"/>
</svg>
